HIERARCHY
ROOT Hips
{
	OFFSET 0.00000 0.00000 0.00000
	CHANNELS 6 Xposition Yposition Zposition Yrotation Zrotation Xrotation 
	JOINT Lumbar
	{
		OFFSET 0 0 0
		CHANNELS 3 Zrotation Xrotation Yrotation
		JOINT Neck
		{
			OFFSET 0.00 0.2701 0.00
			CHANNELS 3 Zrotation Xrotation Yrotation
			End Site
			{
				OFFSET 0.00 0.1379 0.00
			}
		}
		JOINT RightShoulder
		{
			OFFSET 0.0119 0.2289 0.1181
			CHANNELS 3 Zrotation Xrotation Yrotation
			JOINT RightElbow
			{
				OFFSET 0.00 -0.1475 0.00
				CHANNELS 2 Zrotation Yrotation
				JOINT RightWrist
				{
					OFFSET 0.00 -0.1605 0.00
					CHANNELS 2 Zrotation Xrotation
					End Site
					{
						OFFSET 0.0040 -0.1068 0.0006
					}
				}
			}
		}
		JOINT LeftShoulder
		{
			OFFSET 0.0119 0.2289 -0.1181
			CHANNELS 3 Zrotation Xrotation Yrotation
			JOINT LeftElbow
			{
				OFFSET 0.00 -0.1475 0.00
				CHANNELS 2 Zrotation Yrotation
				JOINT LeftWrist
				{
					OFFSET 0.00 -0.1605 0.00
					CHANNELS 2 Zrotation Xrotation
					End Site
					{
						OFFSET 0.0040 -0.1068 -0.0006
					}
				}
			}
		}
	}
	JOINT RightHip
	{
		OFFSET 0.0316 -0.0424 0.0458
		CHANNELS 3 Zrotation Xrotation Yrotation
		JOINT RightKnee
		{
			OFFSET 0.00 -0.2438 0.00
			CHANNELS 1 Zrotation
			JOINT RightAnkle
			{
				OFFSET 0.00 -0.2449 0.00
				CHANNELS 3 Zrotation Xrotation Yrotation
				End Site
				{
					OFFSET 0.1237 -0.0542 0.0051
				}
			}
		}
	}
	JOINT LeftHip
	{
		OFFSET 0.0316 -0.0424 -0.0458
		CHANNELS 3 Zrotation Xrotation Yrotation
		JOINT LeftKnee
		{
			OFFSET 0.00 -0.2438 0.00
			CHANNELS 1 Zrotation
			JOINT LeftAnkle
			{
				OFFSET 0.00 -0.2449 0.00
				CHANNELS 3 Zrotation Xrotation Yrotation
				End Site
				{
					OFFSET 0.1237 -0.0542 -0.0051
				}
			}
		}
	}
}
MOTION
Frames: 34
Frame Time: 0.02
-0.98056 0.51312 0.40554 530.5041 0 -0.05941 -53.55608 10.83146 -4.60186 -48.12294 -8.1006 -3.29607 75.19253 -18.10238 13.69981 40.74172 125.64404 -41.08334 -8.87488 86.26198 31.33475 -31.60488 15.95613 -85.87299 -3.60209 5.35879 38.93661 -0.07658 8.04765 -51.51031 -2.31265 -2.59201 -16.58967 35.46545 8.57941 9.38757 -48.94326 1.91199 4.30567 10.93405
-0.97385 0.50638 0.40513 531.50235 0 0.04871 -54.33439 10.18142 -4.00216 -47.25299 -6.38027 -0.84933 74.40094 -21.27133 14.62212 41.34569 125.12475 -40.80421 -8.78381 84.5218 28.6506 -26.8248 15.41457 -86.27792 -3.80558 5.32832 40.59223 -0.66031 7.26386 -53.57245 -1.84327 -2.73348 -16.4909 37.33847 8.53789 9.18887 -50.72182 2.16092 4.2518 10.27409
-0.96731 0.49992 0.40448 532.36355 0 0.21477 -55.04121 9.40802 -3.3094 -46.45551 -4.54603 1.5807 73.69693 -24.59156 15.21182 41.28522 124.67892 -40.31793 -8.73823 82.93202 25.81402 -22.06315 14.88254 -86.64472 -3.88293 5.23552 42.1533 -1.34771 6.47502 -55.39961 -1.48182 -2.88745 -16.30292 39.00109 8.46536 9.20294 -52.17899 2.25986 4.13094 9.56293
-0.96073 0.4933 0.40394 533.28698 0 0.3535 -55.74492 8.70505 -2.66483 -45.6519 -2.78579 3.97259 72.96507 -27.78641 15.95336 41.48852 124.18646 -39.92358 -8.67276 81.29545 23.09183 -17.36897 14.35428 -87.002 -4.01135 5.17003 43.76044 -1.98411 5.69679 -57.33934 -1.08599 -3.02997 -16.16145 40.76449 8.40334 9.11636 -53.79044 2.42419 4.04163 8.88338
-0.95401 0.4868 0.40336 534.21681 0 0.4955 -56.5996 7.94203 -2.00521 -44.72911 -0.92879 6.56792 72.1721 -31.2342 16.69662 41.86181 123.71252 -39.51406 -8.60074 79.55527 20.17419 -12.30954 13.7831 -87.4697 -4.17332 5.10581 45.3549 -2.64653 4.84362 -59.25768 -0.62899 -3.1966 -15.9948 42.51029 8.35725 9.05247 -55.37184 2.60336 3.94767 8.16098
-0.94761 0.48011 0.40281 535.09678 0 0.64329 -57.11852 7.27503 -1.35184 -44.07741 0.75166 8.7339 71.53269 -34.18613 17.3546 41.72046 123.22799 -39.08733 -8.55431 78.07373 17.62692 -8.03378 13.30731 -87.70134 -4.23253 5.02608 46.95218 -3.27443 4.1593 -61.16179 -0.324 -3.31628 -15.85934 44.24087 8.27146 8.98882 -56.93766 2.71481 3.848 7.51943
-0.942 0.47277 0.40241 535.89188 0 0.81176 -56.7769 6.89764 -0.72509 -44.11661 1.93024 9.68625 71.27937 -35.7252 17.86831 40.31252 122.74147 -38.77571 -8.56876 77.24388 16.17079 -5.90469 13.0886 -87.26789 -4.04194 4.91004 48.59142 -3.79688 3.95972 -63.10527 -0.42213 -3.30061 -15.83226 45.98328 8.06956 8.88297 -58.53859 2.67542 3.7421 7.10353
-0.9367 0.46523 0.40205 536.63691 0 0.98106 -56.09069 6.62212 -0.10617 -44.43447 2.92572 10.20928 71.18206 -36.75819 18.30425 38.40982 122.2379 -38.43841 -8.60766 76.67676 15.08851 -4.57319 12.96787 -86.60291 -3.75151 4.7831 50.23411 -4.27691 3.93319 -65.03756 -0.66798 -3.23778 -15.83929 47.71579 7.8311 8.76775 -60.13351 2.57256 3.63375 6.77364
-0.93129 0.45779 0.40168 537.39214 0 1.13782 -55.53131 6.30345 0.50571 -44.65055 3.99428 10.95056 71.02531 -38.02648 18.77024 36.73745 121.72023 -38.04391 -8.63488 76.00585 13.81502 -2.88998 12.80558 -86.0583 -3.50275 4.6664 51.86898 -4.76533 3.82167 -66.96208 -0.83946 -3.19828 -15.8308 49.45179 7.61834 8.64984 -61.73197 2.49884 3.53116 6.41189
-0.92577 0.45031 0.40126 538.19736 0 1.34735 -55.09734 5.96693 1.15451 -44.76189 5.10431 11.60181 70.8226 -39.28216 19.25154 35.01858 121.3023 -37.93059 -8.66579 75.26834 12.6237 -1.15731 12.62935 -85.4467 -3.26205 4.52264 53.5298 -5.30386 3.73489 -68.93635 -1.04415 -3.15117 -15.82045 51.18828 7.36624 8.56807 -63.31947 2.41926 3.40744 6.01754
-0.92056 0.44288 0.40095 538.88623 0 1.44712 -54.31843 5.69376 1.73702 -45.1595 6.08964 12.3287 70.75216 -40.43654 19.68117 33.28814 120.66462 -37.23048 -8.69453 74.73723 11.35498 0.27814 12.50733 -84.92227 -2.98661 4.43665 55.13505 -5.72607 3.63931 -70.80283 -1.21476 -3.1086 -15.82179 52.91973 7.18774 8.4069 -64.92807 2.33803 3.32698 5.71244
-0.91605 0.43549 0.40093 539.28439 0 1.23738 -52.69535 5.56781 2.0206 -46.25299 6.71737 13.45381 71.00182 -41.47699 20.03574 31.64651 119.49026 -34.90265 -8.70865 74.64858 9.75899 1.12616 12.49505 -84.68464 -2.60695 4.48522 56.61635 -5.84062 3.46673 -72.41411 -1.24238 -3.08943 -15.86019 54.67768 7.22218 8.02018 -66.63559 2.27449 3.37605 5.63141
-0.91185 0.42819 0.40102 539.56447 0 0.91809 -50.73286 5.50324 2.2586 -47.62807 7.23587 14.65317 71.37867 -42.42287 20.333 30.01447 118.08536 -31.99094 -8.71993 74.7686 8.07854 1.69463 12.53732 -84.54988 -2.20421 4.59728 58.03611 -5.83836 3.28147 -73.91079 -1.23236 -3.07648 -15.90736 56.42457 7.33209 7.55467 -68.35857 2.2108 3.46741 5.63775
-0.90757 0.42096 0.40107 539.88721 0 0.65266 -48.91046 5.413 2.59519 -48.89306 7.84222 15.7645 71.70326 -43.38551 20.62706 28.38058 116.73924 -29.35401 -8.73409 74.83512 6.45026 2.36699 12.5646 -84.36884 -1.83191 4.69931 59.46505 -5.88704 3.10893 -75.43549 -1.24749 -3.06111 -15.94217 58.15302 7.40694 7.12944 -70.05073 2.14374 3.53342 5.60531
-0.90306 0.41327 0.40106 540.25439 0 0.36982 -47.13597 5.31681 2.60569 -50.09836 8.28215 17.09403 72.01583 -44.44713 21.0441 26.71522 115.57612 -26.66766 -8.74272 74.7407 4.77095 3.11246 12.55231 -84.15732 -1.36472 4.72346 60.97468 -5.94367 2.91285 -77.06245 -1.23424 -3.04254 -16.01279 59.98122 7.48321 6.68401 -71.84401 2.08959 3.62479 5.57207
-0.89909 0.40655 0.4012 540.50184 0 0.09755 -45.18532 5.24628 3.28097 -51.48364 9.04366 17.98731 72.37423 -45.2794 21.18936 25.12824 113.99059 -23.95669 -8.76152 75.02221 3.18026 3.64568 12.63615 -84.06231 -1.09991 4.92253 62.29995 -5.95618 2.76077 -78.44786 -1.26879 -3.03252 -16.01133 61.59772 7.57559 6.26346 -73.42909 2.00849 3.67392 5.55998
-0.89646 0.40239 0.40172 540.44643 0 -0.12174 -42.83555 5.23134 5.83003 -53.36016 10.72986 17.7033 72.89123 -45.56598 20.62678 23.72545 111.1833 -21.23019 -8.81201 76.33513 1.79237 3.6963 12.95452 -84.04082 -1.32541 5.61033 63.1451 -5.8783 2.73023 -79.20715 -1.44756 -3.04645 -15.8012 62.64522 7.68855 5.91827 -74.44742 1.86077 3.59175 5.58559
-0.89437 0.39921 0.40237 540.27521 0 -0.32616 -40.32153 5.23967 9.04109 -55.39456 12.73989 16.97226 73.43799 -45.61555 19.78892 22.41014 107.98151 -18.51705 -8.87227 78.00892 0.50699 3.5389 13.37075 -84.17197 -1.77039 6.46758 63.80421 -5.75971 2.74398 -79.72497 -1.67448 -3.06865 -15.51948 63.47785 7.81639 5.60314 -75.25351 1.68466 3.46636 5.62877
-0.89206 0.39563 0.40295 540.15792 0 -0.53529 -37.88115 5.23701 11.93595 -57.31424 14.59934 16.417 73.92811 -45.7338 19.05728 21.07596 105.03154 -15.85597 -8.92592 79.48783 -0.78693 3.4597 13.7529 -84.3856 -2.16325 7.23405 64.53942 -5.65809 2.73877 -80.34501 -1.87654 -3.08611 -15.27526 64.40031 7.94106 5.28267 -76.14899 1.517 3.3637 5.66325
-0.88964 0.39188 0.4036 540.03055 0 -0.75644 -35.43138 5.23828 14.90873 -59.42661 16.47998 15.97582 74.60224 -46.01297 18.39848 19.65037 101.76031 -12.92511 -8.98827 81.10715 -2.24662 3.44545 14.09218 -83.97751 -2.35156 8.06293 65.30825 -5.55885 2.72885 -80.99284 -2.08969 -3.10795 -15.01035 65.35485 8.05287 4.92469 -77.07482 1.36877 3.2498 5.70452
-0.88758 0.38869 0.40413 539.89875 0 -0.94814 -32.96859 5.23611 17.85857 -61.16983 18.3814 15.19476 74.90168 -45.90227 17.52941 18.43993 99.07631 -10.57191 -9.03531 82.51372 -3.33258 3.24243 14.54446 -84.87932 -3.02163 8.79867 65.96354 -5.44645 2.73869 -81.52686 -2.29199 -3.12249 -14.77148 66.19234 8.19442 4.65254 -77.88681 1.17246 3.14811 5.73384
-0.88639 0.38682 0.40434 539.77848 0 -1.05681 -30.49641 5.21758 20.73478 -61.86594 20.37174 13.54721 74.13132 -44.77266 16.09869 17.76975 98.03714 -9.77414 -9.03337 83.26838 -3.43735 2.63725 15.27702 -89.53151 -4.93836 9.25758 66.35221 -5.30833 2.7985 -81.80615 -2.45005 -3.1154 -14.62148 66.75355 8.41086 4.61421 -78.43614 0.85743 3.0936 5.73187
-0.88554 0.38548 0.40444 539.65882 0 -1.13665 -28.02194 5.19448 23.53245 -62.18111 22.34811 11.58241 72.98774 -43.26039 14.47749 17.31986 97.6176 -9.56871 -9.0162 83.78928 -3.16418 1.8373 16.12291 -95.46306 -7.33607 9.61265 66.63318 -5.15857 2.87575 -81.97948 -2.59649 -3.10046 -14.50035 67.20553 8.6572 4.66077 -78.87812 0.49344 3.05208 5.71538
-0.88453 0.38389 0.40457 539.54293 0 -1.23283 -25.55811 5.17416 26.27253 -62.66276 24.26336 9.78358 72.03222 -41.92289 12.97259 16.78951 96.96333 -9.11676 -9.00921 84.40263 -3.04703 1.08425 16.91946 -100.69806 -9.5359 10.00041 66.96276 -5.01465 2.94072 -82.20188 -2.74961 -3.08881 -14.36618 67.71123 8.89163 4.66624 -79.36944 0.14746 3.00254 5.70152
-0.88354 0.38235 0.40477 539.40733 0 -1.31553 -23.04427 5.15253 29.44796 -63.18026 26.48941 7.86606 70.99851 -40.56958 11.32304 16.1763 96.0965 -8.5622 -8.99001 85.09381 -2.99355 0.5025 17.70289 -106.42971 -11.66421 10.45472 67.28687 -4.868 3.02479 -82.41284 -2.89711 -3.07895 -14.22868 68.19203 9.11882 4.6836 -79.85133 -0.18076 2.96057 5.70633
-0.88257 0.38083 0.4048 539.31258 0 -1.41886 -20.64062 5.13124 31.6662 -63.52786 28.04211 6.14021 70.04042 -39.1662 9.94501 15.79054 95.82569 -8.37065 -8.99098 85.55397 -2.71811 -0.48336 18.54858 -111.42227 -14.0425 10.74434 67.59967 -4.72342 3.0737 -82.62444 -3.05467 -3.06298 -14.10654 68.70177 9.36886 4.69559 -80.32973 -0.55832 2.90631 5.66699
-0.88157 0.37921 0.40437 539.3474 0 -1.59273 -18.50632 5.12066 31.46295 -63.51996 27.90262 4.89998 69.36571 -37.67858 9.26248 15.95001 97.04265 -8.96225 -9.06455 85.50462 -1.93016 -2.50229 19.45614 -114.1175 -17.0832 10.59687 67.90465 -4.60002 3.01155 -82.87509 -3.2274 -3.03543 -14.01463 69.31687 9.6672 4.67569 -80.82889 -1.04884 2.81684 5.52391
-0.88057 0.37759 0.40377 539.42075 0 -1.78727 -16.49091 5.10908 30.26398 -63.34886 27.05932 3.88583 68.78215 -36.16244 8.87931 16.33762 98.84028 -9.91182 -9.15657 85.21532 -0.93094 -4.9255 20.43564 -116.01519 -20.34228 10.28807 68.20335 -4.4771 2.91468 -83.12899 -3.41304 -3.00135 -13.93853 69.96583 9.98884 4.64683 -81.32837 -1.58802 2.71464 5.33505
-0.87954 0.37598 0.40325 539.46598 0 -1.96805 -14.44463 5.09185 29.37713 -63.23918 26.42213 2.85334 68.16871 -34.68648 8.42753 16.6369 100.37961 -10.74721 -9.23125 84.98782 -0.02368 -7.18709 21.4378 -118.2379 -23.43976 10.05701 68.50799 -4.34574 2.84026 -83.3754 -3.603 -2.96791 -13.85883 70.60166 10.30461 4.61924 -81.82627 -2.11383 2.61691 5.15617
-0.87862 0.37433 0.40271 539.55599 0 -2.166 -12.29856 5.0993 29.05602 -63.17315 26.242 1.46407 67.49684 -33.08185 7.68713 16.87137 101.92082 -11.40167 -9.34263 84.95345 0.87993 -9.36706 22.21714 -120.65614 -26.81221 9.80274 68.79624 -4.24814 2.7396 -83.644 -3.75067 -2.94385 -13.76479 71.22547 10.60141 4.60558 -82.32704 -2.60975 2.52419 5.01843
-0.87748 0.37277 0.40218 539.56183 0 -2.33377 -10.39089 5.05639 27.352 -62.97862 24.97156 0.86213 66.96906 -31.74379 7.61785 17.30187 103.58283 -12.5063 -9.38287 84.46085 1.83613 -11.80446 23.46755 -122.47008 -29.66404 9.56112 69.11792 -4.08116 2.68347 -83.86774 -3.9883 -2.89906 -13.70424 71.88199 10.94301 4.56079 -82.82249 -3.17222 2.41907 4.78943
-0.87572 0.37143 0.40174 539.32628 0 -2.41086 -9.09408 4.86433 21.8039 -62.50349 20.6136 2.49969 66.85462 -31.14792 9.36196 18.13086 105.47959 -14.79779 -9.2161 82.77915 2.88566 -14.90261 26.07353 -122.72299 -30.96229 9.38277 69.53941 -3.71683 2.77243 -83.97409 -4.48242 -2.79648 -13.72974 72.63652 11.4013 4.42211 -83.31116 -3.96338 2.27232 4.2759
-0.87376 0.37018 0.40131 539.00461 0 -2.45754 -8.03674 4.62379 14.94804 -61.90066 15.22798 4.90141 66.87724 -30.82313 11.7659 19.16242 107.46751 -17.52075 -8.97849 80.64293 3.97859 -18.23443 29.13607 -122.40316 -31.73595 9.22513 69.994 -3.28384 2.90454 -84.03408 -5.06442 -2.67378 -13.7884 73.42021 11.90396 4.25381 -83.79354 -4.80932 2.11546 3.68043
-0.8719 0.36891 0.40088 538.72209 0 -2.51967 -6.88162 4.41196 8.86883 -61.33515 10.47771 6.87507 66.81381 -30.37716 13.84685 20.15968 109.38121 -20.02311 -8.77709 78.70382 5.05029 -21.42792 31.94269 -122.39899 -32.79129 9.06605 70.43038 -2.88597 3.00811 -84.11146 -5.5991 -2.56169 -13.83385 74.18088 12.38706 4.10533 -84.27417 -5.59226 1.97003 3.15108
